<svg width="76" height="64" viewBox="0 0 76 64" version="1.1" xmlns="http://www.w3.org/2000/svg"><title>Shape</title><g id="Home" stroke="none" stroke-width="1" fill="none" fill-rule="evenodd"><g id="Desktop-HD-Copy-5" transform="translate(-720 -467)" fill="#FFF"><path d="M795.794 510.872c-2.035 8.105-5.522 15.588-12.409 18.137-17.955 6.641-37.312-6.135-50.863 1.8L720 518.291c6.712-2.84 15.268-13.772 25.206-15.05 5.165-.664 11.673 2.262 18.135 2.864 5.685.53 15.304-2.489 16.229 3.819.796 5.457-8.836 5.163-15.273 5.724 5.037 1.007 10.47 5.715 14.618 4.566 5.349-1.473 8.124-9.37 11.847-11.661 4.215-2.597 5.845-.93 5.032 2.32zm-28.326-15.206v8.541c.344-.023.688-.047 1.034-.062 1.32-.089 2.685-.178 3.994-.178.276 0 .637.005 1.048.02a6.99 6.99 0 0 0 .338-2.095c0-1.982-.734-3.484-2.186-4.515-.838-.6-2.249-1.175-4.228-1.711zm-8.046-10.422c0 1.565.52 2.797 1.565 3.678 1.048.89 2.458 1.509 4.225 1.852v-11.16c-2.088.082-3.577.709-4.46 1.9-.892 1.188-1.33 2.432-1.33 3.73zm12.954 31.638c2.335 1.103 4.54 1.944 6.041 1.528 2.528-.695 4.542-3.468 6.49-6.155 1.564-2.146 3.034-4.172 4.877-5.304.39-.243.769-.451 1.143-.633 1.701-3.558 2.684-7.53 2.684-11.737 0-15.07-12.221-27.292-27.288-27.292-15.076 0-27.291 12.222-27.291 27.292 0 2.801.425 5.507 1.211 8.05 1.53-.6 3.102-1.042 4.729-1.252 2.966-.377 6.22.277 9.642 1.089a19.691 19.691 0 0 1-.123-2.202h4.199c.076 1.311.244 2.377.475 3.261 1.46.311 2.915.581 4.354.713.53.052 1.11.056 1.703.054v-9.199c-3.435-.653-5.973-1.737-7.611-3.251-1.637-1.523-2.456-3.626-2.456-6.316 0-2.407.88-4.578 2.644-6.501 1.77-1.93 4.24-2.915 7.423-2.949v-3.157h2.258v3.114c3.144.222 5.563 1.15 7.25 2.782 1.688 1.636 2.571 3.795 2.648 6.483h-4.156c-.11-1.204-.43-2.243-.97-3.114-1.005-1.6-2.588-2.438-4.772-2.518v11.564c3.669 1.026 6.163 1.993 7.474 2.898 2.142 1.49 3.208 3.686 3.208 6.6 0 1.51-.18 2.851-.533 4.053 1.787.739 3.396 2.147 3.796 4.874.226 1.533-.138 2.939-1.039 4.057-1.604 1.954-4.605 2.755-8.01 3.168z" id="Shape"/></g></g></svg>