<svg width="77" height="68" viewBox="0 0 77 68" version="1.1" xmlns="http://www.w3.org/2000/svg"><title>Group</title><g id="Home" stroke="none" stroke-width="1" fill="none" fill-rule="evenodd"><g id="Desktop-HD-Copy-5" transform="translate(-625 -240)" fill="#FFF"><g id="Group" transform="translate(625 240.542)"><circle id="Oval" cx="38.408" cy="9.098" r="8.967"/><path d="M69.798 33.768l-8.357-1.743c-2.848-.597-5.659.708-7.145 3.028a30.76 30.76 0 0 0-4.647-1.91v-4.97c.004-3.76-3.074-6.836-6.821-6.836h-8.546c-3.766 0-6.831 3.075-6.831 6.835v4.996c-1.635.521-3.17 1.16-4.624 1.905-1.486-2.33-4.3-3.645-7.151-3.048l-8.364 1.743c-3.672.768-6.054 4.41-5.286 8.094L4.125 51.89c.761 3.675 4.406 6.058 8.08 5.29l2.647-.554c1.325 1.958 3.157 3.754 5.503 5.29 4.888 3.203 11.344 4.969 18.195 4.969 10.483 0 19.513-4.215 23.672-10.269l2.689.564c3.671.764 7.316-1.615 8.077-5.29l2.103-10.028c.764-3.684-1.618-7.326-5.293-8.094zM38.547 63.461c-6.19 0-11.99-1.559-16.317-4.41-1.483-.968-2.712-2.046-3.697-3.2l2.027-.425c3.677-.764 6.06-4.406 5.292-8.084l-1.881-9.016a25.746 25.746 0 0 1 3.476-1.549v1.644c0 3.754 3.072 6.829 6.832 6.829h8.545c3.75 0 6.822-3.078 6.822-6.829v-1.73c1.249.445 2.422.956 3.51 1.536l-1.908 9.119c-.762 3.678 1.618 7.32 5.296 8.084l2.046.428c-3.816 4.518-11.366 7.603-20.043 7.603z" id="Shape"/><circle id="Oval" cx="67.979" cy="20.886" r="8.967"/><path d="M10.96 29.665c4.85-1.015 7.949-5.77 6.947-10.618-1.022-4.844-5.768-7.955-10.622-6.94a8.965 8.965 0 0 0-6.94 10.611c1.012 4.851 5.764 7.959 10.615 6.947z" id="Shape"/></g></g></g></svg>