<svg width="77" height="66" viewBox="0 0 77 66" version="1.1" xmlns="http://www.w3.org/2000/svg"><title>Shape</title><g id="Home" stroke="none" stroke-width="1" fill="none" fill-rule="evenodd"><g id="Desktop-HD-Copy-3" transform="translate(-30 -363)" fill="#FFF"><g id="Banner3" transform="translate(-36 145)"><g id="people-2-+-1-in-5-North-Carolin-+-1-in-4-children-live-+-Shape-+-Little-investment-in-+-and-loans-are-diffic-+-Group" transform="translate(36 -8)"><g id="Shape-+-Little-investment-in-+-and-loans-are-diffic" transform="translate(30 223)"><path d="M74.71 28.913L41.368 3.96a4.81 4.81 0 0 0-5.766 0L22.117 14.05v-2.435a4.812 4.812 0 0 0-4.81-4.811h-4.448a4.812 4.812 0 0 0-4.811 4.811V24.58l-6.119 4.58a4.812 4.812 0 0 0 2.883 8.664H8.05v25.512a4.811 4.811 0 0 0 4.811 4.811h51.25a4.81 4.81 0 0 0 4.81-4.811V37.823h3.269a4.811 4.811 0 0 0 2.521-8.91zM50.721 45.658c0 5.49-3.727 8.829-9.257 9.517v2.205a2.967 2.967 0 0 1-5.932 0v-2.45c-2.812-.53-5.55-1.625-7.963-3.352-.759-.533-1.291-1.515-1.291-2.582 0-1.78 1.422-3.158 3.204-3.158.89 0 1.51.308 1.957.62 2.364 1.736 4.942 2.804 7.97 2.804 2.806 0 4.5-1.112 4.5-2.938v-.09c0-1.734-1.069-2.622-6.28-3.962-6.274-1.6-10.328-3.339-10.328-9.53v-.09c0-4.819 3.318-8.223 8.232-9.13V21.2a2.966 2.966 0 1 1 5.933 0v2.344c2.444.4 4.667 1.228 6.628 2.477.76.44 1.518 1.38 1.518 2.716 0 1.778-1.426 3.16-3.206 3.16-.67 0-1.202-.177-1.734-.491-2.274-1.333-4.41-2.093-6.552-2.093-2.625 0-4.004 1.203-4.004 2.715v.091c0 2.047 1.334 2.716 6.723 4.097 6.319 1.647 9.884 3.92 9.884 9.348v.095h-.002z" id="Shape"/></g></g></g></g></g></svg>