<svg width="77" height="73" viewBox="0 0 77 73" version="1.1" xmlns="http://www.w3.org/2000/svg" xmlns:xlink="http://www.w3.org/1999/xlink"><title>people-2</title><defs><path id="path-1" d="M25.506 42.263c-1.925 0-4.331-.96-4.331-2.881 0-1.921 2.406-1.441 4.331-4.803 0 0 8.663-23.533-8.662-23.533-17.325 0-8.663 23.533-8.663 23.533 1.925 3.362 4.332 2.882 4.332 4.803 0 1.92-2.407 2.881-4.332 2.881-2.887.48-5.293 0-8.181 2.882V72.52h24.063c.962-8.165 3.368-24.974 5.293-29.296l.481-.48c-.962-.48-2.406-.48-4.33-.48z"/><path id="path-3" d="M77 41.303c-3.369-3.842-6.256-3.362-9.625-3.842-2.406-.48-5.294-.961-5.294-3.362 0-2.402 2.888-1.441 5.294-5.763 0 0 10.106-28.336-10.587-28.336-21.175.48-11.07 28.816-11.07 28.816 2.407 3.842 5.294 3.362 5.294 5.283 0 2.401-2.887 2.881-5.293 3.362-4.331.48-8.181 0-12.032 7.203-1.924 4.323-4.812 27.856-4.812 27.856H77V41.303z"/></defs><g id="Home" stroke="none" stroke-width="1" fill="none" fill-rule="evenodd"><g id="Desktop-HD-Copy-3" transform="translate(-30 -252)"><g id="Banner3" transform="translate(-36 145)"><g id="people-2-+-1-in-5-North-Carolin-+-1-in-4-children-live-+-Shape-+-Little-investment-in-+-and-loans-are-diffic-+-Group" transform="translate(36 -8)"><g id="people-2-+-1-in-5-North-Carolin-+-1-in-4-children-live" transform="translate(30 115)"><g id="people-2" transform="matrix(-1 0 0 1 77 0)"><mask id="mask-2" fill="#fff"><use xlink:href="#path-1"/></mask><use id="Mask" fill="#FFF" xlink:href="#path-1"/><mask id="mask-4" fill="#fff"><use xlink:href="#path-3"/></mask><use id="Mask" fill="#FFF" xlink:href="#path-3"/></g></g></g></g></g></g></svg>