<svg width="78" height="77" viewBox="0 0 78 77" version="1.1" xmlns="http://www.w3.org/2000/svg"><title>Shape</title><g id="Home" stroke="none" stroke-width="1" fill="none" fill-rule="evenodd"><g id="Desktop-HD-Copy-5" transform="translate(-663 -331)" fill="#FFF"><path d="M735.687 391.156V362.28a4.812 4.812 0 0 0 2.603-8.86l-33.687-21.656a4.81 4.81 0 0 0-5.205 0L665.71 353.42a4.81 4.81 0 0 0 2.603 8.86v28.875a4.813 4.813 0 0 0-4.813 4.812v7.219a4.813 4.813 0 0 0 4.813 4.812h67.374a4.813 4.813 0 0 0 4.813-4.812v-7.219a4.813 4.813 0 0 0-4.813-4.812zm-48.124 0h-9.625V362.28h9.624v28.875zm19.25 0h-9.625V362.28h9.625v28.875zm-4.813-38.5a4.813 4.813 0 1 1 .002-9.626 4.813 4.813 0 0 1-.002 9.626zm24.063 38.5h-9.625V362.28h9.625v28.875z" id="Shape"/></g></g></svg>