<svg width="75" height="75" viewBox="0 0 75 75" version="1.1" xmlns="http://www.w3.org/2000/svg"><title>people</title><g id="Home" stroke="none" stroke-width="1" fill="none" fill-rule="evenodd"><g id="Desktop-HD-Copy-3" transform="translate(-33 -470)" fill="#FFF"><g id="Banner3" transform="translate(-36 145)"><g id="people-2-+-1-in-5-North-Carolin-+-1-in-4-children-live-+-Shape-+-Little-investment-in-+-and-loans-are-diffic-+-Group" transform="translate(36 -8)"><g id="Group" transform="translate(33 318)"><g id="people" transform="translate(0 15)"><path d="M18.56 17.497c4.797 0 8.683-3.88 8.683-8.663 0-4.778-3.886-8.657-8.683-8.657s-8.687 3.88-8.687 8.657c0 4.784 3.89 8.663 8.687 8.663zM36.652 42.911c-1.08-2.47-1.988-5.049-2.865-7.543-2.3-6.541-5.05-15.764-9.451-15.764h-11.59c-4.57 0-7.155 9.223-9.45 15.764-.883 2.494-1.786 5.074-2.87 7.543-.746 1.704-.594 3.686 1.115 4.43.439.19.895.282 1.346.282 1.3 0 2.238-.996 2.79-2.258.847-1.936 2.224-6.14 3.128-8.721.21-.6.472-.99.42.052v8.736c0 .402.093.783.26 1.124.103.212.802.939.784 1.382V70.55c0 2.308 1.592 4.18 3.814 4.18 2.223 0 3.398-1.872 3.398-4.18V48.667s-.009-.631 1.005-.631h-.071c1.002 0 .984.63.984.63V70.55c0 2.308 1.17 4.18 3.392 4.18s3.815-1.872 3.815-4.18V48.406c0-.652.481-1.117.669-1.348.36-.446.577-1.012.577-1.626v-9.075c0-.873.181-.377.273-.042.708 2.59 2.091 7.264 2.977 9.289.554 1.262 1.37 2.019 2.67 2.019.452 0 .911-.093 1.35-.282 1.705-.744 2.276-2.726 1.53-4.43zM21.906 32.676L19.045 35.3a.735.735 0 0 1-.974 0l-2.862-2.624c-.267-.246-.425-.737-.35-1.091l1.491-7.105c.023-.106.09-.428.084-.5l-.117-1.5a.602.602 0 0 1 .61-.657h3.262c.363 0 .638.296.61.658l-.118 1.498c-.006.073.062.395.084.5l1.492 7.106c.075.354-.083.845-.35 1.09zM51.272 9.252h11.57c.713 0 .713-.676.713-.676v-2.19s0-.68-.774-.68h-11.51c-2.485 0-4.508 2.016-4.508 4.495v24.941s.072.537-.381.537h-6.356c-.592 0-.592.54-.592.54v2.365s-.057.642.536.642h6.401c.439 0 .393.489.393.489v24.99c0 2.478 2.022 4.495 4.508 4.495h11.58s.703 0 .703-.711v-2.017c0-.808-.704-.819-.704-.819H51.272a.962.962 0 0 1-.951-.948V39.889s-.085-.663.481-.663H62.87a.622.622 0 0 0 .686-.607v-2.4s0-.54-.66-.54h-11.98c-.618 0-.594-.624-.594-.624V10.201c0-.514.435-.949.95-.949z" id="Shape"/><path d="M70.273 9.466l-1.778 2.548c-.256.356-.474.61-.652.762-.178.151-.404.227-.678.227-.304 0-.562-.095-.775-.284-.213-.19-.32-.407-.32-.653 0-.25.164-.61.49-1.076l2.163-3.1-1.917-2.582c-.333-.427-.5-.797-.5-1.112 0-.245.1-.459.298-.64.199-.18.459-.27.78-.27.28 0 .512.078.696.236.183.157.398.405.643.744l1.55 2.118 1.506-2.118c.25-.35.468-.601.652-.753.184-.152.413-.228.687-.228.315 0 .576.09.784.267a.82.82 0 0 1 .31.644c0 .18-.042.354-.127.52a3.958 3.958 0 0 1-.39.592L71.78 7.89l2.162 3.1c.339.484.508.849.508 1.094 0 .25-.105.467-.315.648-.21.18-.47.271-.78.271-.274 0-.506-.079-.696-.236-.19-.158-.407-.409-.652-.753l-1.733-2.548z" id="x"/><path d="M70.273 38.466l-1.778 2.548c-.256.356-.474.61-.652.762-.178.151-.404.227-.678.227-.304 0-.562-.095-.775-.284-.213-.19-.32-.407-.32-.653 0-.25.164-.61.49-1.076l2.163-3.1-1.917-2.582c-.333-.427-.5-.797-.5-1.112 0-.245.1-.459.298-.64.199-.18.459-.27.78-.27.28 0 .512.078.696.236.183.157.398.405.643.744l1.55 2.118 1.506-2.118c.25-.35.468-.601.652-.753.184-.152.413-.228.687-.228.315 0 .576.09.784.267a.82.82 0 0 1 .31.644c0 .18-.042.354-.127.52a3.958 3.958 0 0 1-.39.592L71.78 36.89l2.162 3.1c.339.484.508.849.508 1.094 0 .25-.105.467-.315.648-.21.18-.47.271-.78.271-.274 0-.506-.079-.696-.236-.19-.158-.407-.409-.652-.753l-1.733-2.548z" id="x-copy"/><path d="M70.273 68.466l-1.778 2.548c-.256.356-.474.61-.652.762-.178.151-.404.227-.678.227-.304 0-.562-.095-.775-.284-.213-.19-.32-.407-.32-.653 0-.25.164-.61.49-1.076l2.163-3.1-1.917-2.582c-.333-.427-.5-.797-.5-1.112 0-.245.1-.459.298-.64.199-.18.459-.27.78-.27.28 0 .512.078.696.236.183.157.398.405.643.744l1.55 2.118 1.506-2.118c.25-.35.468-.601.652-.753.184-.152.413-.228.687-.228.315 0 .576.09.784.267a.82.82 0 0 1 .31.644c0 .18-.042.354-.127.52a3.958 3.958 0 0 1-.39.592L71.78 66.89l2.162 3.1c.339.484.508.849.508 1.094 0 .25-.105.467-.315.648-.21.18-.47.271-.78.271-.274 0-.506-.079-.696-.236-.19-.158-.407-.409-.652-.753l-1.733-2.548z" id="x-copy-2"/></g></g></g></g></g></g></svg>