<?xml version="1.0" encoding="UTF-8" standalone="no"?>
<svg width="76px" height="64px" viewBox="0 0 76 64" version="1.1" xmlns="http://www.w3.org/2000/svg" xmlns:xlink="http://www.w3.org/1999/xlink" xmlns:sketch="http://www.bohemiancoding.com/sketch/ns">
    <!-- Generator: Sketch 3.3.3 (12072) - http://www.bohemiancoding.com/sketch -->
    <title>Shape</title>
    <desc>Created with Sketch.</desc>
    <defs></defs>
    <g id="Home" stroke="none" stroke-width="1" fill="none" fill-rule="evenodd" sketch:type="MSPage">
        <g id="Desktop-HD-Copy-5" sketch:type="MSArtboardGroup" transform="translate(-720.000000, -467.000000)" fill="#FFFFFF">
            <path d="M795.794028,510.872476 C793.759493,518.976997 790.271718,526.460095 783.385099,529.008687 C765.43,535.650208 746.072634,522.873631 732.521718,530.808969 L720,518.290504 C726.712014,515.451264 735.26769,504.519433 745.206113,503.241884 C750.370535,502.577081 756.878662,505.503081 763.341239,506.104983 C769.026225,506.634222 778.644718,503.616039 779.569803,509.923532 C780.365831,515.380771 770.734324,515.08687 764.29669,515.64756 C769.334225,516.655067 774.767606,521.362912 778.914761,520.214419 C784.263549,518.740574 787.038803,510.843194 790.761915,508.552715 C794.977394,505.956405 796.607408,507.623292 795.794028,510.872476 L795.794028,510.872476 Z M767.467789,495.665518 L767.467789,504.207095 C767.811577,504.184321 768.156451,504.160461 768.502408,504.145278 C769.821169,504.056349 771.186563,503.967419 772.495563,503.967419 C772.772113,503.967419 773.133254,503.971757 773.544282,503.98694 C773.744915,503.338405 773.881563,502.651912 773.881563,501.891673 C773.881563,499.910278 773.148437,498.408236 771.696282,497.37687 C770.857958,496.777138 769.447014,496.202349 767.467789,495.665518 L767.467789,495.665518 Z M759.421831,485.24449 C759.421831,486.809433 759.94131,488.041433 760.986775,488.922053 C762.035493,489.811349 763.445352,490.430602 765.212014,490.774391 L765.212014,479.614814 C763.124338,479.696152 761.63531,480.322997 760.752521,481.51487 C759.859972,482.702405 759.421831,483.946335 759.421831,485.24449 L759.421831,485.24449 Z M772.376268,516.881729 C774.711211,517.984673 776.916014,518.82625 778.416972,518.4098 C780.944958,517.714631 782.958887,514.941546 784.907746,512.255222 C786.470521,510.108983 787.941113,508.083123 789.78369,506.950898 C790.174113,506.707969 790.552606,506.499743 790.926761,506.317546 C792.628352,502.760363 793.610915,498.787814 793.610915,494.581011 C793.610915,479.510701 781.389606,467.289391 766.322549,467.289391 C751.246817,467.289391 739.032014,479.510701 739.032014,494.581011 C739.032014,497.382292 739.457141,500.088138 740.243408,502.630222 C741.773648,502.031574 743.345099,501.589095 744.971859,501.378701 C747.937986,501.002377 751.191507,501.656335 754.614211,502.467546 C754.537211,501.779969 754.490577,501.050095 754.490577,500.265997 L758.689789,500.265997 C758.765704,501.577166 758.933803,502.643236 759.164803,503.527109 C760.625634,503.838363 762.079958,504.108405 763.519099,504.239631 C764.048338,504.291687 764.629634,504.296025 765.221775,504.293856 L765.221775,495.095067 C761.787141,494.442194 759.249394,493.357687 757.610704,491.843715 C755.974183,490.321067 755.15538,488.218208 755.15538,485.527546 C755.15538,483.121025 756.034915,480.949842 757.799408,479.027011 C759.568239,477.096588 762.039831,476.111856 765.221775,476.078236 L765.221775,472.921236 L767.479718,472.921236 L767.479718,476.034856 C770.623704,476.25718 773.043239,477.185518 774.730732,478.816616 C776.418225,480.453138 777.301014,482.612391 777.378014,485.2998 L773.222183,485.2998 C773.112648,484.095997 772.791634,483.057039 772.251549,482.18618 C771.247296,480.586532 769.663915,479.748208 767.479718,479.667954 L767.479718,491.232053 C771.148606,492.257997 773.642972,493.225377 774.954141,494.129856 C777.096042,495.619969 778.162113,497.816095 778.162113,500.729081 C778.162113,502.240884 777.982085,503.581335 777.628535,504.782969 C779.415803,505.521518 781.025211,506.930292 781.425394,509.656743 C781.650972,511.190236 781.286577,512.595757 780.386437,513.713884 C778.782451,515.668166 775.780535,516.468532 772.376268,516.881729 L772.376268,516.881729 Z" id="Shape" sketch:type="MSShapeGroup"></path>
        </g>
    </g>
</svg>