<?xml version="1.0" encoding="UTF-8" standalone="no"?>
<svg width="77px" height="68px" viewBox="0 0 77 68" version="1.1" xmlns="http://www.w3.org/2000/svg" xmlns:xlink="http://www.w3.org/1999/xlink" xmlns:sketch="http://www.bohemiancoding.com/sketch/ns">
    <!-- Generator: Sketch 3.3.3 (12072) - http://www.bohemiancoding.com/sketch -->
    <title>Group</title>
    <desc>Created with Sketch.</desc>
    <defs></defs>
    <g id="Home" stroke="none" stroke-width="1" fill="none" fill-rule="evenodd" sketch:type="MSPage">
        <g id="Desktop-HD-Copy-5" sketch:type="MSArtboardGroup" transform="translate(-625.000000, -240.000000)" fill="#FFFFFF">
            <g id="Group" sketch:type="MSLayerGroup" transform="translate(625.000000, 240.541667)">
                <circle id="Oval" sketch:type="MSShapeGroup" cx="38.4081806" cy="9.09776389" r="8.96713889"></circle>
                <path d="M69.7982083,33.7681667 L61.4408056,32.0248194 C58.5934861,31.428375 55.782375,32.7334028 54.2961528,35.0534861 C52.8527083,34.3120556 51.3004861,33.6726806 49.6494167,33.1420833 L49.6494167,28.172375 C49.6527778,24.4122083 46.5746111,21.3374028 42.8277361,21.3374028 L34.2824167,21.3374028 C30.5156806,21.3374028 27.4508056,24.4122083 27.4508056,28.172375 L27.4508056,33.1683611 C25.8162361,33.6890278 24.2805139,34.3284028 22.8271389,35.0731944 C21.3409167,32.7431806 18.5264444,31.428375 15.6757639,32.0248194 L7.31163889,33.7681667 C3.64038889,34.5360278 1.25766667,38.1776389 2.02552778,41.8620278 L4.12484722,51.8903611 C4.88613889,55.5648194 8.53095833,57.9475417 12.2055694,57.1796806 L14.8518333,56.6260139 C16.1765694,58.5835556 18.0089861,60.3796111 20.3553472,61.9153333 C25.2425556,65.118625 31.6986389,66.8850417 38.5499583,66.8850417 C49.0331111,66.8850417 58.0628889,62.6700556 62.2218056,56.6160833 L64.911,57.1796806 C68.58225,57.9441806 72.2270694,55.5648194 72.9883611,51.8903611 L75.0908889,41.8620278 C75.8553889,38.1776389 73.4726667,34.5360278 69.7982083,33.7681667 L69.7982083,33.7681667 Z M38.5465972,63.4609861 C32.3575694,63.4609861 26.5573611,61.9021944 22.2303889,59.0515139 C20.747375,58.0825972 19.518125,57.0050556 18.5328611,55.8515833 L20.5596111,55.4264028 C24.2374306,54.6619028 26.6201528,51.0202917 25.8522917,47.3424722 L23.9705278,38.3258333 C25.0679306,37.7359583 26.2214028,37.2185 27.4472917,36.7769722 L27.4472917,38.4214722 C27.4472917,42.1750694 30.5187361,45.249875 34.2789028,45.249875 L42.8242222,45.249875 C46.5746111,45.249875 49.6460556,42.1718611 49.6460556,38.4214722 L49.6460556,36.6912639 C50.8950139,37.1361528 52.0681944,37.6470417 53.1558194,38.2269861 L51.247625,47.3458333 C50.4863333,51.0236528 52.8656944,54.6652639 56.5435139,55.4297639 L58.5899722,55.8581528 C54.7738889,60.3764028 47.2237639,63.4609861 38.5465972,63.4609861 L38.5465972,63.4609861 Z" id="Shape" sketch:type="MSShapeGroup"></path>
                <circle id="Oval" sketch:type="MSShapeGroup" cx="67.9790833" cy="20.8859444" r="8.96713889"></circle>
                <path d="M10.9596667,29.6651667 C15.8106667,28.6501111 18.9085417,23.89475 17.906625,19.0469583 C16.885,14.2025278 12.1394167,11.0915139 7.28505556,12.1065694 C2.440625,13.1182639 -0.670388889,17.8704167 0.344666667,22.7182083 C1.35651389,27.5692083 6.10866667,30.6770139 10.9596667,29.6651667 L10.9596667,29.6651667 Z" id="Shape" sketch:type="MSShapeGroup"></path>
            </g>
        </g>
    </g>
</svg>