<?xml version="1.0" encoding="UTF-8" standalone="no"?>
<svg width="77px" height="66px" viewBox="0 0 77 66" version="1.1" xmlns="http://www.w3.org/2000/svg" xmlns:xlink="http://www.w3.org/1999/xlink" xmlns:sketch="http://www.bohemiancoding.com/sketch/ns">
    <!-- Generator: Sketch 3.3.3 (12072) - http://www.bohemiancoding.com/sketch -->
    <title>Shape</title>
    <desc>Created with Sketch.</desc>
    <defs></defs>
    <g id="Home" stroke="none" stroke-width="1" fill="none" fill-rule="evenodd" sketch:type="MSPage">
        <g id="Desktop-HD-Copy-3" sketch:type="MSArtboardGroup" transform="translate(-30.000000, -363.000000)" fill="#FFFFFF">
            <g id="Banner3" sketch:type="MSLayerGroup" transform="translate(-36.000000, 145.000000)">
                <g id="people-2-+-1-in-5-North-Carolin-+-1-in-4-children-live-+-Shape-+-Little-investment-in-+-and-loans-are-diffic-+-Group" transform="translate(36.000000, -8.000000)" sketch:type="MSShapeGroup">
                    <g id="Shape-+-Little-investment-in-+-and-loans-are-diffic" transform="translate(30.000000, 223.000000)">
                        <path d="M74.7101196,28.9131739 L41.3676992,3.95976815 C39.6595994,2.68007728 37.3117171,2.68007728 35.6021074,3.95976815 L22.1173539,14.0509692 L22.1173539,11.6162727 C22.1173539,8.9605147 19.9633565,6.80500748 17.3060887,6.80500748 L12.8588138,6.80500748 C10.2011685,6.80500748 8.04754855,8.9605147 8.04754855,11.6162727 L8.04754855,24.5795123 L1.92903839,29.1597764 C0.269252536,30.400967 -0.407646182,32.5645266 0.246605367,34.5308041 C0.900856916,36.4970817 2.74043613,37.823325 4.81252627,37.823325 L8.04918417,37.823325 L8.04918417,63.33599 C8.04918417,65.9935095 10.2031816,68.1472552 12.8604494,68.1472552 L64.1091056,68.1472552 C66.7666251,68.1472552 68.920245,65.9932578 68.920245,63.33599 L68.920245,37.823325 L72.1566513,37.823325 L72.1887348,37.823325 C74.8462542,37.823325 77,35.6693276 77,33.0120598 C76.9987418,31.2787965 76.0830413,29.7599263 74.7101196,28.9131739 L74.7101196,28.9131739 Z M50.72098,45.6581132 C50.72098,51.1477869 46.9938851,54.4869862 41.4639497,55.1749568 L41.4639497,57.380162 C41.4639497,59.017804 40.1378321,60.3454313 38.4986803,60.3454313 C36.8596544,60.3454313 35.5315238,59.0159167 35.5315238,57.380162 L35.5315238,54.9294867 C32.7200035,54.400172 29.9824641,53.3046781 27.5686533,51.5775799 C26.8099732,51.0452456 26.2776389,50.0634908 26.2776389,48.995551 C26.2776389,47.2153577 27.7001327,45.8376549 29.4819616,45.8376549 C30.3721212,45.8376549 30.9926536,46.1456564 31.4385512,46.4583131 C33.8025382,48.1937154 36.3814217,49.2616552 39.409474,49.2616552 C42.2145775,49.2616552 43.9080825,48.1503083 43.9080825,46.3235625 L43.9080825,46.2337287 C43.9080825,44.4999621 42.8401426,43.611564 37.6291549,42.2723614 C31.3551342,40.6717098 27.3009135,38.933288 27.3009135,32.7426843 L27.3009135,32.6528505 C27.3009135,27.8334072 30.6191012,24.4286569 35.5330336,23.5226444 L35.5330336,21.200303 C35.5330336,19.5612771 36.8610384,18.2317624 38.5001902,18.2317624 C40.1393419,18.2317624 41.4658369,19.5597672 41.4658369,21.200303 L41.4658369,23.5435301 C43.9100956,23.9445108 46.1327894,24.7718874 48.0942858,26.021382 C48.8546016,26.4608629 49.6115204,27.4007204 49.6115204,28.7367776 C49.6115204,30.5154611 48.1857552,31.8979449 46.4055619,31.8979449 C45.7350799,31.8979449 45.2042555,31.7197872 44.6717953,31.4056206 C42.3977679,30.0729605 40.261385,29.3127706 38.120221,29.3127706 C35.494785,29.3127706 34.1156982,30.5155869 34.1156982,32.0280403 L34.1156982,32.1193839 C34.1156982,34.1658073 35.4501198,34.8347795 40.8388878,36.2155019 C47.1578254,37.8625801 50.7229931,40.1350977 50.7229931,45.5638758 L50.7229931,45.6586164 L50.72098,45.6581132 L50.72098,45.6581132 Z" id="Shape"></path>
                    </g>
                </g>
            </g>
        </g>
    </g>
</svg>