<?xml version="1.0" encoding="UTF-8" standalone="no"?>
<svg width="78px" height="77px" viewBox="0 0 78 77" version="1.1" xmlns="http://www.w3.org/2000/svg" xmlns:xlink="http://www.w3.org/1999/xlink" xmlns:sketch="http://www.bohemiancoding.com/sketch/ns">
    <!-- Generator: Sketch 3.3.3 (12072) - http://www.bohemiancoding.com/sketch -->
    <title>Shape</title>
    <desc>Created with Sketch.</desc>
    <defs></defs>
    <g id="Home" stroke="none" stroke-width="1" fill="none" fill-rule="evenodd" sketch:type="MSPage">
        <g id="Desktop-HD-Copy-5" sketch:type="MSArtboardGroup" transform="translate(-663.000000, -331.000000)" fill="#FFFFFF">
            <path d="M735.687203,391.155767 L735.687203,362.280915 C737.823201,362.280915 739.703084,360.873409 740.304646,358.824336 C740.906209,356.775264 740.086129,354.574598 738.289713,353.420951 L704.60251,331.764849 C703.01634,330.74505 700.98381,330.74505 699.39764,331.764849 L665.710287,353.420951 C663.913871,354.574748 663.093791,356.775264 663.695354,358.824336 C664.296916,360.873409 666.176799,362.280915 668.312797,362.280915 L668.312797,391.155617 C665.655094,391.155617 663.500297,393.310414 663.500297,395.968117 L663.500297,403.186868 C663.500297,405.844571 665.655094,407.999368 668.312797,407.999368 L735.687203,407.999368 C738.344906,407.999368 740.499703,405.844571 740.499703,403.186868 L740.499703,395.968117 C740.499703,393.310564 738.344906,391.155767 735.687203,391.155767 L735.687203,391.155767 Z M687.562649,391.155767 L677.937648,391.155767 L677.937648,362.280915 L687.562499,362.280915 L687.562499,391.155767 L687.562649,391.155767 Z M706.812651,391.155767 L697.18765,391.155767 L697.18765,362.280915 L706.812651,362.280915 L706.812651,391.155767 L706.812651,391.155767 Z M702.00015,352.656064 C699.342447,352.656064 697.18765,350.500515 697.18765,347.843564 C697.18765,345.186763 699.342447,343.031063 702.00015,343.031063 C704.657854,343.031063 706.812651,345.186763 706.812651,347.843564 C706.812651,350.500515 704.657854,352.656064 702.00015,352.656064 L702.00015,352.656064 Z M726.062502,391.155767 L716.437652,391.155767 L716.437652,362.280915 L726.062502,362.280915 L726.062502,391.155767 L726.062502,391.155767 Z" id="Shape" sketch:type="MSShapeGroup"></path>
        </g>
    </g>
</svg>