<?xml version="1.0" encoding="UTF-8" standalone="no"?>
<svg width="75px" height="75px" viewBox="0 0 75 75" version="1.1" xmlns="http://www.w3.org/2000/svg" xmlns:xlink="http://www.w3.org/1999/xlink" xmlns:sketch="http://www.bohemiancoding.com/sketch/ns">
    <!-- Generator: Sketch 3.3.3 (12072) - http://www.bohemiancoding.com/sketch -->
    <title>people</title>
    <desc>Created with Sketch.</desc>
    <defs></defs>
    <g id="Home" stroke="none" stroke-width="1" fill="none" fill-rule="evenodd" sketch:type="MSPage">
        <g id="Desktop-HD-Copy-3" sketch:type="MSArtboardGroup" transform="translate(-33.000000, -470.000000)" fill="#FFFFFF">
            <g id="Banner3" sketch:type="MSLayerGroup" transform="translate(-36.000000, 145.000000)">
                <g id="people-2-+-1-in-5-North-Carolin-+-1-in-4-children-live-+-Shape-+-Little-investment-in-+-and-loans-are-diffic-+-Group" transform="translate(36.000000, -8.000000)" sketch:type="MSShapeGroup">
                    <g id="Group" transform="translate(33.000000, 318.000000)">
                        <g id="people" transform="translate(0.000000, 15.000000)">
                            <path d="M18.5603478,17.4965565 C23.3569457,17.4965565 27.2425163,13.6178214 27.2425163,8.83444457 C27.2425163,4.0564922 23.3571549,0.177339833 18.5603478,0.177339833 C13.7627038,0.177339833 9.87315761,4.0564922 9.87315761,8.83444457 C9.87315761,13.6178214 13.7627038,17.4965565 18.5603478,17.4965565 L18.5603478,17.4965565 Z" id="Shape"></path>
                            <path d="M36.6524185,42.9114409 C35.5721168,40.4418273 34.6644375,37.8620543 33.7866793,35.3680304 C31.4873505,28.8269028 28.7366929,19.6041883 24.3359755,19.6041883 L12.7462201,19.6041883 C8.1753913,19.6041883 5.59066033,28.8269028 3.2955163,35.3680304 C2.41294565,37.8620543 1.51028804,40.4418273 0.42601087,42.9114409 C-0.320345109,44.6153638 -0.167600543,46.5967713 1.5410462,47.3407641 C1.97982065,47.5302047 2.43554348,47.6230474 2.88687228,47.6230474 C4.18645652,47.6230474 5.12468478,46.6274407 5.6777038,45.365407 C6.52428533,43.4294819 7.90149728,39.2248588 8.80541033,36.6440426 C9.01548641,36.0444253 9.27703533,35.6532345 9.22493478,36.69641 L9.22493478,45.4319616 C9.22493478,45.8344187 9.31846467,46.2153864 9.48418207,46.5560875 C9.5875462,46.7682694 10.2870326,47.4949454 10.2686196,47.938295 L10.2686196,70.5491237 C10.2686196,72.8570451 11.8609293,74.7280847 14.0832582,74.7280847 C16.3057962,74.7280847 17.4808832,72.8570451 17.4808832,70.5491237 L17.4808832,48.6668487 C17.4808832,48.6668487 17.4720951,48.0355189 18.4864864,48.0355189 C18.5584647,48.0355189 18.3427391,48.0355189 18.4147174,48.0355189 C19.4171821,48.0355189 19.398769,48.6668487 19.398769,48.6668487 L19.398769,70.5491237 C19.398769,72.8570451 20.568625,74.7280847 22.7907446,74.7280847 C25.0132826,74.7280847 26.6055924,72.8570451 26.6055924,70.5491237 L26.6055924,48.4060549 C26.6055924,47.7540702 27.0870516,47.2892312 27.2745299,47.0576462 C27.6354674,46.611793 27.8524484,46.0463919 27.8524484,45.4319616 L27.8524484,36.357378 C27.8524484,35.4838228 28.033231,35.9801657 28.1248777,36.3150251 C28.8327337,38.9050212 30.2160136,43.578656 31.1019321,45.6036682 C31.655788,46.8659106 32.4724484,47.6230474 33.7716141,47.6230474 C34.2235707,47.6230474 34.683269,47.5302047 35.1218342,47.3407641 C36.8269239,46.5967713 37.3981467,44.6153638 36.6524185,42.9114409 L36.6524185,42.9114409 Z M21.9060815,32.6758031 L19.0445272,35.2998067 C18.7769103,35.5453702 18.3385543,35.5453702 18.0709375,35.2998067 L15.2093832,32.6758031 C14.9415571,32.4304482 14.7835815,31.9393212 14.8580707,31.5846415 L16.3501549,24.4797819 C16.3725435,24.3735866 16.4399185,24.0520799 16.4340598,23.9790577 C16.4047663,23.6045577 16.3168859,22.4806404 16.3168859,22.4806404 C16.2884293,22.1190758 16.5627418,21.8232312 16.9263995,21.8232312 L20.1886467,21.8232312 C20.5523043,21.8232312 20.8266168,22.1190758 20.7981603,22.4806404 C20.7981603,22.4806404 20.7102799,23.604349 20.6807772,23.9790577 C20.6751277,24.0518713 20.742712,24.3735866 20.7648913,24.4797819 L22.2567663,31.5846415 C22.3318832,31.9393212 22.1739076,32.4304482 21.9060815,32.6758031 L21.9060815,32.6758031 Z" id="Shape"></path>
                            <path d="M51.2717473,9.25234067 L62.8422527,9.25234067 C63.5549212,9.25234067 63.5549212,8.57573705 63.5549212,8.57573705 L63.5549212,6.38506852 C63.5549212,6.38506852 63.5549212,5.70554401 62.7813641,5.70554401 L51.2717473,5.70554401 C48.7857772,5.70554401 46.763481,7.72200223 46.763481,10.2007958 L46.763481,35.1420786 C46.763481,35.1420786 46.8354592,35.6793139 46.382038,35.6793139 L40.0263995,35.6793139 C39.4340435,35.6793139 39.4340435,36.2198875 39.4340435,36.2198875 L39.4340435,38.584349 C39.4340435,38.584349 39.3773397,39.2261106 39.9696957,39.2261106 L46.3713668,39.2261106 C46.8095136,39.2261106 46.7636902,39.7145253 46.7636902,39.7145253 L46.7636902,64.7048373 C46.7636902,67.1834223 48.7859864,69.1998805 51.2719565,69.1998805 L62.85125,69.1998805 C62.85125,69.1998805 63.5551304,69.1998805 63.5551304,68.4888521 L63.5551304,66.4719766 C63.5551304,65.6635156 62.85125,65.6530838 62.85125,65.6530838 L51.2719565,65.6530838 C50.7563913,65.6530838 50.3207554,65.2189142 50.3207554,64.7048373 L50.3207554,39.888527 C50.3207554,39.888527 50.2358043,39.2261106 50.8024239,39.2261106 L62.8686168,39.2261106 C63.5551304,39.2261106 63.5551304,38.6191911 63.5551304,38.6191911 L63.5551304,36.2198875 C63.5551304,36.2198875 63.5551304,35.6793139 62.8947717,35.6793139 L50.9158315,35.6793139 C50.2969022,35.6793139 50.3207554,35.0550777 50.3207554,35.0550777 L50.3207554,10.2005872 C50.3205462,9.68651031 50.7561821,9.25234067 51.2717473,9.25234067 L51.2717473,9.25234067 Z" id="Shape"></path>
                            <path d="M70.2726839,9.46614415 L68.495431,12.0138318 C68.2386181,12.3698678 68.0212059,12.6237586 67.8431879,12.7755116 C67.6651699,12.9272647 67.4390029,13.0031401 67.16468,13.0031401 C66.8611739,13.0031401 66.6029058,12.9082958 66.3898678,12.7186045 C66.1768299,12.5289132 66.0703125,12.311501 66.0703125,12.0663614 C66.0703125,11.8153852 66.2337364,11.4564363 66.5605892,10.9895038 L68.7230594,7.89025489 L66.8057275,5.30754748 C66.4730381,4.88147158 66.3066959,4.51084948 66.3066959,4.19567005 C66.3066959,3.95053049 66.4059176,3.73749574 66.6043639,3.5565594 C66.8028102,3.37562306 67.0625375,3.28515625 67.3835536,3.28515625 C67.663713,3.28515625 67.8957166,3.36394993 68.0795713,3.52153964 C68.263426,3.67912935 68.4779199,3.92718352 68.7230594,4.26570957 L70.2726839,6.38440514 L71.7785336,4.26570957 C72.0295098,3.91551021 72.246922,3.66453776 72.4307767,3.5127847 C72.6146313,3.36103164 72.8437167,3.28515625 73.1180395,3.28515625 C73.4332189,3.28515625 73.6944054,3.37416392 73.9016067,3.55218193 C74.108808,3.73019994 74.212407,3.94469384 74.212407,4.19567005 C74.212407,4.37660639 74.1700919,4.5502443 74.0854604,4.716589 C74.0008289,4.8829337 73.8709652,5.07991789 73.6958656,5.30754748 L71.7785336,7.89025489 L73.9410039,10.9895038 C74.2795299,11.4739462 74.4487904,11.8387318 74.4487904,12.0838713 C74.4487904,12.3348475 74.3437322,12.5508006 74.1336126,12.7317369 C73.923493,12.9126733 73.6637657,13.0031401 73.3544229,13.0031401 C73.0801001,13.0031401 72.8480965,12.9243464 72.6584051,12.7667567 C72.4687138,12.609167 72.2513016,12.3581945 72.0061621,12.0138318 L70.2726839,9.46614415 Z" id="x"></path>
                            <path d="M70.2726839,38.4661442 L68.495431,41.0138318 C68.2386181,41.3698678 68.0212059,41.6237586 67.8431879,41.7755116 C67.6651699,41.9272647 67.4390029,42.0031401 67.16468,42.0031401 C66.8611739,42.0031401 66.6029058,41.9082958 66.3898678,41.7186045 C66.1768299,41.5289132 66.0703125,41.311501 66.0703125,41.0663614 C66.0703125,40.8153852 66.2337364,40.4564363 66.5605892,39.9895038 L68.7230594,36.8902549 L66.8057275,34.3075475 C66.4730381,33.8814716 66.3066959,33.5108495 66.3066959,33.19567 C66.3066959,32.9505305 66.4059176,32.7374957 66.6043639,32.5565594 C66.8028102,32.3756231 67.0625375,32.2851562 67.3835536,32.2851562 C67.663713,32.2851562 67.8957166,32.3639499 68.0795713,32.5215396 C68.263426,32.6791294 68.4779199,32.9271835 68.7230594,33.2657096 L70.2726839,35.3844051 L71.7785336,33.2657096 C72.0295098,32.9155102 72.246922,32.6645378 72.4307767,32.5127847 C72.6146313,32.3610316 72.8437167,32.2851562 73.1180395,32.2851562 C73.4332189,32.2851562 73.6944054,32.3741639 73.9016067,32.5521819 C74.108808,32.7301999 74.212407,32.9446938 74.212407,33.19567 C74.212407,33.3766064 74.1700919,33.5502443 74.0854604,33.716589 C74.0008289,33.8829337 73.8709652,34.0799179 73.6958656,34.3075475 L71.7785336,36.8902549 L73.9410039,39.9895038 C74.2795299,40.4739462 74.4487904,40.8387318 74.4487904,41.0838713 C74.4487904,41.3348475 74.3437322,41.5508006 74.1336126,41.7317369 C73.923493,41.9126733 73.6637657,42.0031401 73.3544229,42.0031401 C73.0801001,42.0031401 72.8480965,41.9243464 72.6584051,41.7667567 C72.4687138,41.609167 72.2513016,41.3581945 72.0061621,41.0138318 L70.2726839,38.4661442 Z" id="x-copy"></path>
                            <path d="M70.2726839,68.4661442 L68.495431,71.0138318 C68.2386181,71.3698678 68.0212059,71.6237586 67.8431879,71.7755116 C67.6651699,71.9272647 67.4390029,72.0031401 67.16468,72.0031401 C66.8611739,72.0031401 66.6029058,71.9082958 66.3898678,71.7186045 C66.1768299,71.5289132 66.0703125,71.311501 66.0703125,71.0663614 C66.0703125,70.8153852 66.2337364,70.4564363 66.5605892,69.9895038 L68.7230594,66.8902549 L66.8057275,64.3075475 C66.4730381,63.8814716 66.3066959,63.5108495 66.3066959,63.19567 C66.3066959,62.9505305 66.4059176,62.7374957 66.6043639,62.5565594 C66.8028102,62.3756231 67.0625375,62.2851562 67.3835536,62.2851562 C67.663713,62.2851562 67.8957166,62.3639499 68.0795713,62.5215396 C68.263426,62.6791294 68.4779199,62.9271835 68.7230594,63.2657096 L70.2726839,65.3844051 L71.7785336,63.2657096 C72.0295098,62.9155102 72.246922,62.6645378 72.4307767,62.5127847 C72.6146313,62.3610316 72.8437167,62.2851562 73.1180395,62.2851562 C73.4332189,62.2851562 73.6944054,62.3741639 73.9016067,62.5521819 C74.108808,62.7301999 74.212407,62.9446938 74.212407,63.19567 C74.212407,63.3766064 74.1700919,63.5502443 74.0854604,63.716589 C74.0008289,63.8829337 73.8709652,64.0799179 73.6958656,64.3075475 L71.7785336,66.8902549 L73.9410039,69.9895038 C74.2795299,70.4739462 74.4487904,70.8387318 74.4487904,71.0838713 C74.4487904,71.3348475 74.3437322,71.5508006 74.1336126,71.7317369 C73.923493,71.9126733 73.6637657,72.0031401 73.3544229,72.0031401 C73.0801001,72.0031401 72.8480965,71.9243464 72.6584051,71.7667567 C72.4687138,71.609167 72.2513016,71.3581945 72.0061621,71.0138318 L70.2726839,68.4661442 Z" id="x-copy-2"></path>
                        </g>
                    </g>
                </g>
            </g>
        </g>
    </g>
</svg>